<?xml version="1.0" encoding="UTF-8" standalone="no"?>
<!-- Created with Inkscape (http://www.inkscape.org/) -->

<svg
   xmlns:dc="http://purl.org/dc/elements/1.1/"
   xmlns:cc="http://creativecommons.org/ns#"
   xmlns:rdf="http://www.w3.org/1999/02/22-rdf-syntax-ns#"
   xmlns:svg="http://www.w3.org/2000/svg"
   xmlns="http://www.w3.org/2000/svg"
   xmlns:sodipodi="http://sodipodi.sourceforge.net/DTD/sodipodi-0.dtd"
   xmlns:inkscape="http://www.inkscape.org/namespaces/inkscape"
   width="264.65625"
   height="329.86273"
   id="svg2894"
   version="1.1"
   inkscape:version="0.47 r22583"
   sodipodi:docname="Yoani Sanchez_mickey_mouse.svg">
  <defs
     id="defs2896">
    <inkscape:perspective
       sodipodi:type="inkscape:persp3d"
       inkscape:vp_x="0 : 526.18109 : 1"
       inkscape:vp_y="0 : 1000 : 0"
       inkscape:vp_z="744.09448 : 526.18109 : 1"
       inkscape:persp3d-origin="372.04724 : 350.78739 : 1"
       id="perspective2902" />
    <inkscape:perspective
       id="perspective2912"
       inkscape:persp3d-origin="0.5 : 0.33333333 : 1"
       inkscape:vp_z="1 : 0.5 : 1"
       inkscape:vp_y="0 : 1000 : 0"
       inkscape:vp_x="0 : 0.5 : 1"
       sodipodi:type="inkscape:persp3d" />
    <inkscape:perspective
       id="perspective2932"
       inkscape:persp3d-origin="0.5 : 0.33333333 : 1"
       inkscape:vp_z="1 : 0.5 : 1"
       inkscape:vp_y="0 : 1000 : 0"
       inkscape:vp_x="0 : 0.5 : 1"
       sodipodi:type="inkscape:persp3d" />
  </defs>
  <sodipodi:namedview
     id="base"
     pagecolor="#ffffff"
     bordercolor="#666666"
     borderopacity="1.0"
     inkscape:pageopacity="0.0"
     inkscape:pageshadow="2"
     inkscape:zoom="0.49497475"
     inkscape:cx="478.5581"
     inkscape:cy="59.782893"
     inkscape:document-units="px"
     inkscape:current-layer="layer1"
     showgrid="false"
     inkscape:window-width="1440"
     inkscape:window-height="819"
     inkscape:window-x="0"
     inkscape:window-y="25"
     inkscape:window-maximized="1" />
  <metadata
     id="metadata2899">
    <rdf:RDF>
      <cc:Work
         rdf:about="">
        <dc:format>image/svg+xml</dc:format>
        <dc:type
           rdf:resource="http://purl.org/dc/dcmitype/StillImage" />
      </cc:Work>
    </rdf:RDF>
  </metadata>
  <g
     inkscape:label="Ebene 1"
     inkscape:groupmode="layer"
     id="layer1"
     transform="translate(375.7812,-501.84375)">
    <path
       style="fill:#000000"
       d="m -168.52941,511.91604 c -27.23872,0 -49.32319,22.05512 -49.32319,49.29384 0,7.5809 1.72676,14.76753 4.78268,21.18462 -0.20543,-0.0275 -0.38716,-0.0291 -0.55749,-0.0293 -1.30524,-0.002 -3.20657,-0.58989 -4.22519,-1.29103 -1.01862,-0.70114 -3.43296,-1.77607 -5.36951,-2.40601 -0.96827,-0.31497 -1.85585,-0.74122 -2.49403,-1.17366 -0.0126,-0.008 -0.0169,-0.0208 -0.0293,-0.0293 -3.68626,-0.6232 -7.06745,-0.90824 -9.9468,-1.02695 -2.84585,0.36018 -4.95951,0.7096 -7.95157,1.32037 -2.84026,0.57979 -6.32775,1.86939 -7.74617,2.87547 -0.43059,0.30542 -1.11492,0.642 -1.93655,0.96827 -0.64746,0.82391 -1.02695,1.43774 -1.02695,1.43774 0,0 -0.788,-0.21479 -1.9072,-0.46946 -1.30971,0.36314 -2.71946,0.67411 -4.04914,0.88024 -3.81417,0.5913 -7.25735,1.61657 -10.53363,3.25692 1.15697,-4.18931 1.78984,-8.58772 1.78984,-13.14503 0,-27.23872 -22.08447,-49.32319 -49.32319,-49.32319 -27.23872,0 -49.32319,22.08447 -49.32319,49.32319 0,27.23872 22.08447,49.32319 49.32319,49.32319 7.20943,0 14.0433,-1.59196 20.21635,-4.37189 -0.35915,0.61782 -0.6907,1.2101 -1.0563,1.84852 -7.75592,13.54336 -10.67407,20.36453 -16.25523,38.02668 -0.45041,1.42535 -0.93926,2.83981 -1.4084,4.19584 -2.03185,9.48291 -2.76624,18.4738 -3.87309,29.81105 -5.38311,55.13848 21.95439,130.56504 97.26733,129.2203 75.31293,-1.34475 103.98992,-74.09844 81.04143,-143.50965 -16.31615,-49.35067 -23.60768,-58.81018 -33.71347,-68.16048 2.48734,0.38638 5.03316,0.58683 7.62881,0.58683 27.23872,0 49.32319,-22.08447 49.32319,-49.32319 0,-27.23872 -22.08447,-49.29385 -49.32319,-49.29385 z m -75.81863,77.46176 c 0.49173,-0.17963 2.69507,1.6237 6.24976,5.2228 3.15227,3.19165 5.7216,6.35833 5.7216,7.01263 0,2.13704 4.20803,4.00659 14.61211,6.51383 15.06524,3.63053 20.04986,7.21838 25.99663,18.80795 1.05992,2.06565 2.66746,4.28701 3.57968,4.92939 5.51198,3.88151 11.74618,16.4373 15.02288,30.25116 1.04822,4.41902 2.97812,11.3904 4.28387,15.5217 3.07095,9.71614 3.81457,22.55018 2.31799,40.08059 -1.46852,17.2017 -3.29572,27.4287 -6.60186,36.97039 -3.50488,10.1153 -4.34104,11.60958 -12.26477,22.03552 -7.08949,9.32827 -9.91341,12.16652 -14.49474,14.67079 -2.02725,1.10814 -5.58729,1.52506 -13.46779,1.61379 -5.89258,0.0664 -10.91068,-0.19953 -11.1498,-0.58683 -0.23911,-0.38731 -2.04758,-0.7042 -4.04913,-0.7042 -4.94038,0 -7.68722,-1.16677 -12.17676,-5.2228 -4.79065,-4.32806 -5.10771,-6.57231 -0.76288,-5.51622 4.81471,1.17029 10.79375,0.56371 14.58276,-1.46708 2.03532,-1.09087 5.27315,-1.87786 7.80486,-1.87786 6.64688,0 10.01056,-1.49533 10.73902,-4.81202 0.33977,-1.54694 0.42896,-3.03333 0.17605,-3.28625 -0.25292,-0.25291 -6.52395,-0.59926 -13.93725,-0.76289 -14.56932,-0.32157 -18.14911,-1.12382 -23.35589,-5.3695 -3.62239,-2.95375 -4.73305,-2.20487 -2.28865,1.52576 1.44405,2.20391 1.46117,2.37667 0.0587,2.37667 -1.33698,0 -5.27182,-4.99412 -5.28149,-6.71923 -0.005,-0.91475 7.53151,-0.20284 10.59231,0.99762 2.31894,0.90948 2.72562,0.77652 3.40363,-1.0563 0.69442,-1.87721 1.44142,-2.08364 8.333,-2.22996 8.66591,-0.18399 16.52117,-1.78414 18.1331,-3.72638 0.60521,-0.72925 1.87654,-1.34971 2.84613,-1.34971 1.11352,0 1.76049,-0.64915 1.76049,-1.78984 0,-1.69286 0.17631,-1.72803 2.8168,-0.41078 1.66894,0.83258 2.81679,2.15569 2.81679,3.22757 0,3.49427 2.35754,1.63664 7.80486,-6.13239 1.75269,-2.4997 5.84217,-3.306 6.51383,-1.29102 0.22029,0.66086 0.86946,0.8121 1.61378,0.35209 0.94621,-0.58479 1.07214,-2.46953 0.61618,-7.86354 -0.70901,-8.38755 -1.97988,-10.12006 -12.29412,-16.54865 -10.12677,-6.31173 -11.30982,-4.56958 -2.84614,4.16651 3.99178,4.12026 5.11936,6.01817 5.66293,9.3893 0.3747,2.32385 0.73034,4.38416 0.79222,4.57729 0.0619,0.19313 -2.84026,1.38375 -6.45515,2.64074 -5.99958,2.08622 -7.51375,2.24996 -17.37021,1.73115 -5.93874,-0.31259 -12.39725,-0.9316 -14.37737,-1.37905 -2.5641,-0.57943 -4.52802,-0.44125 -6.77791,0.4988 -2.86305,1.19627 -3.26468,1.15703 -4.37189,-0.38144 -0.67193,-0.93362 -1.99745,-1.96823 -2.93416,-2.31798 -1.26266,-0.47146 -1.62688,-1.42989 -1.40839,-3.69704 0.38547,-3.99995 3.2396,-4.5059 7.13,-1.23235 2.6091,2.19542 3.3791,2.38078 8.36235,1.81918 7.17337,-0.80841 10.62165,-2.57639 10.62165,-5.42819 0,-2.54068 1.20111,-3.71646 5.16412,-4.98807 3.76158,-1.20696 4.22727,-4.25529 0.88024,-5.78029 -1.94475,-0.88605 -2.78317,-0.88021 -3.84374,0 -1.658,1.37601 -9.37663,-0.2759 -14.23067,-3.05152 -3.95587,-2.26204 -4.98253,-2.23415 -7.07132,0.20539 -2.7424,3.20288 -3.99006,0.88424 -2.28864,-4.28387 0.96113,-2.91951 1.09378,-4.27087 0.38144,-4.25453 -0.57473,0.0131 -5.40513,4.23836 -10.73902,9.38931 -10.15561,9.80727 -12.50779,10.96221 -15.55103,7.59946 -0.88106,-0.97355 -2.74343,-1.99689 -4.13717,-2.28864 -3.28812,-0.68831 -13.08685,-10.118 -14.81749,-14.26001 -1.89562,-4.53685 -1.67791,-10.68831 0.58683,-16.13786 1.83744,-4.42139 2.14581,-4.67536 5.63358,-4.81202 2.24278,-0.0879 4.88351,0.59401 6.74857,1.73115 3.97903,2.42605 7.69423,2.36561 10.03481,-0.14671 1.57918,-1.69505 2.5212,-1.92868 6.10305,-1.43773 5.70567,0.78204 9.63749,-0.096 10.21087,-2.28865 0.54926,-2.10033 3.46231,-2.42318 3.46231,-0.38144 0,2.06113 5.32852,1.87038 6.45514,-0.23473 1.53509,-2.86832 2.23428,-8.51818 1.58445,-12.85161 -0.73082,-4.87344 -7.4661,-13.81565 -11.58992,-15.37499 -1.40242,-0.53029 -6.37988,-1.14844 -11.06178,-1.40839 -7.24272,-0.40214 -9.48852,-0.16067 -15.02289,1.70181 -3.57755,1.20396 -6.78865,1.98959 -7.15934,1.76049 -0.3707,-0.2291 -0.25368,-1.51366 0.26407,-2.87547 0.5178,-1.36181 0.74067,-3.0081 0.49881,-3.63836 -0.40467,-1.05456 1.24627,-5.31829 4.63597,-11.97136 0.74447,-1.46117 1.10068,-3.67103 0.79222,-4.90004 -0.76957,-3.06623 2.12206,-10.39287 5.98568,-15.22828 3.40851,-4.26582 8.00362,-7.05248 13.32108,-8.06893 7.34486,-1.404 12.35144,-7.21566 14.08396,-16.34326 0.65524,-3.45206 0.54819,-4.92196 -0.55749,-6.6312 -1.02208,-1.57999 -1.35134,-2.41559 -1.0563,-2.52337 z m 45.30339,62.96702 c -3.61488,-2.2e-4 -8.99683,0.52999 -11.97136,1.203 -9.19319,2.08005 -14.09698,8.17442 -8.59708,10.68034 2.00281,0.91254 2.29679,1.538 1.76049,3.52099 -0.35662,1.31865 -0.69143,4.278 -0.76288,6.60185 l -0.14671,4.22519 5.01741,-0.20539 c 4.27065,-0.18097 4.95125,0.0106 4.45992,1.29103 -0.31772,0.82799 -0.0638,2.12684 0.55749,2.87547 0.81897,0.9868 2.0338,1.16222 4.45992,0.67486 1.84056,-0.36974 4.13108,-0.72824 5.0761,-0.82157 0.945,-0.0933 2.0013,-0.59363 2.34732,-1.08563 0.34602,-0.49201 1.78631,-1.62505 3.19823,-2.52338 1.41194,-0.89832 2.81716,-2.67662 3.13955,-3.96111 0.69201,-2.75718 0.7375,-2.77084 3.6677,-0.85091 2.90913,1.90613 4.22519,1.05201 4.22519,-2.72876 0,-1.93218 -0.84424,-3.91995 -2.40601,-5.60425 -1.33622,-1.44106 -2.19441,-3.24204 -1.90721,-3.99045 0.78216,-2.03827 4.02768,-1.63044 5.66293,0.7042 1.97756,2.82337 3.15953,1.242 1.40839,-1.87786 -0.81036,-1.44376 -3.80566,-3.7343 -7.01263,-5.34017 -4.61939,-2.31313 -6.75663,-2.78713 -12.17676,-2.78745 z m -3.34494,17.781 0.0293,2.46469 c 0.0163,1.35049 0.87897,3.53417 1.9072,4.84136 2.14591,2.72807 1.2024,3.46371 -3.28626,2.6114 -3.71977,-0.70631 -4.11676,-3.67084 -0.99761,-7.21803 l 2.34733,-2.69942 z m -66.86945,9.18391 c 0.87972,-0.2896 4.0198,5.09662 4.0198,6.89527 0,1.05056 -4.81783,0.16351 -5.25214,-0.96827 -0.77442,-2.01813 -0.0516,-5.50432 1.23234,-5.927 z m -1.14432,10.06416 c 0.71366,0 1.5587,0.42252 1.87786,0.93893 0.33042,0.53463 -0.47819,0.93893 -1.87786,0.93893 -1.39967,0 -2.20828,-0.4043 -1.87786,-0.93893 0.31916,-0.51641 1.1642,-0.93893 1.87786,-0.93893 z"
       id="path2942" />
  </g>
</svg>
