<?xml version="1.0" encoding="UTF-8" standalone="no"?>
<!-- Created with Inkscape (http://www.inkscape.org/) -->

<svg
   xmlns:dc="http://purl.org/dc/elements/1.1/"
   xmlns:cc="http://creativecommons.org/ns#"
   xmlns:rdf="http://www.w3.org/1999/02/22-rdf-syntax-ns#"
   xmlns:svg="http://www.w3.org/2000/svg"
   xmlns="http://www.w3.org/2000/svg"
   xmlns:sodipodi="http://sodipodi.sourceforge.net/DTD/sodipodi-0.dtd"
   xmlns:inkscape="http://www.inkscape.org/namespaces/inkscape"
   width="64px"
   height="64px"
   id="svg2985"
   version="1.1"
   inkscape:version="0.48.3.1 r9886"
   sodipodi:docname="pomm.png">
  <defs
     id="defs2987" />
  <sodipodi:namedview
     id="base"
     pagecolor="#ffffff"
     bordercolor="#666666"
     borderopacity="1.0"
     inkscape:pageopacity="0.0"
     inkscape:pageshadow="2"
     inkscape:zoom="5.5"
     inkscape:cx="32"
     inkscape:cy="32"
     inkscape:current-layer="layer1"
     showgrid="true"
     inkscape:document-units="px"
     inkscape:grid-bbox="true"
     inkscape:window-width="1366"
     inkscape:window-height="748"
     inkscape:window-x="-2"
     inkscape:window-y="-3"
     inkscape:window-maximized="1" />
  <metadata
     id="metadata2990">
    <rdf:RDF>
      <cc:Work
         rdf:about="">
        <dc:format>image/svg+xml</dc:format>
        <dc:type
           rdf:resource="http://purl.org/dc/dcmitype/StillImage" />
        <dc:title></dc:title>
      </cc:Work>
    </rdf:RDF>
  </metadata>
  <g
     id="layer1"
     inkscape:label="Layer 1"
     inkscape:groupmode="layer">
    <path
       sodipodi:type="arc"
       style="fill:#1a1a1a;fill-rule:evenodd;stroke:#000000;stroke-width:1px;stroke-linecap:butt;stroke-linejoin:miter;stroke-opacity:1"
       id="path2999"
       sodipodi:cx="32.090908"
       sodipodi:cy="32.81818"
       sodipodi:rx="19.90909"
       sodipodi:ry="18.272728"
       d="m 51.999998,32.81818 a 19.90909,18.272728 0 1 1 -39.81818,0 19.90909,18.272728 0 1 1 39.81818,0 z" />
    <path
       style="fill:#552200;stroke:#552200"
       id="path3013"
       d="m 28.98,18.641935 c -0.004,-0.808475 0.09672,-1.609279 0.229006,-2.405289 0.112674,-0.58459 0.227045,-1.168676 0.287383,-1.761332 0.04049,-0.468927 0.0412,-0.939998 0.04168,-1.410296 -0.02905,-0.502532 -0.181576,-0.989348 -0.318129,-1.471246 -0.124118,-0.450294 -0.3225,-0.856753 -0.595226,-1.233579 C 28.286314,9.919499 27.887558,9.5347999 27.470705,9.1699524 26.830966,8.6962262 26.188301,8.2285793 25.531988,7.7780215 25.023728,7.4030393 24.48452,7.0767943 23.936586,6.7647218 23.516177,6.5564985 23.064133,6.4329471 22.634994,6.2422731 22.093602,6.0189267 21.713876,5.6270426 21.35282,5.1833242 21.028843,4.7305414 20.785958,4.2258763 20.519275,3.7384088 20.485587,3.659337 20.451899,3.5802652 20.418211,3.5011935 c 0,0 2.339258,-1.3076856 2.339258,-1.3076856 l 0,0 c 0.02722,0.071242 0.05445,0.1424849 0.08167,0.2137273 0.255324,0.4746287 0.493736,0.9619965 0.808889,1.4009834 0.338165,0.4116548 0.701556,0.75805 1.212304,0.949236 0.44261,0.1766476 0.908133,0.3023336 1.31918,0.5502582 0.547929,0.3186716 1.07683,0.6663426 1.584266,1.0468444 0.662008,0.4622866 1.320931,0.9288417 1.970896,1.4079217 0.430386,0.3798819 0.849337,0.775674 1.198395,1.2337965 0.28971,0.4037932 0.505215,0.8359998 0.638064,1.3171186 0.141108,0.5053 0.302051,1.012501 0.352054,1.536508 -2.2e-5,0.476773 0.01076,0.954653 -0.02278,1.430543 -0.05976,0.607725 -0.185158,1.204305 -0.318567,1.799731 -0.148231,0.769431 -0.254739,1.551833 -0.198205,2.337045 0,0 -2.403636,1.224714 -2.403636,1.224714 z"
       inkscape:connector-curvature="0" />
  </g>
</svg>
